HIERARCHY
ROOT Hips
{
	OFFSET -3.958830 18.904000 13.208200
	CHANNELS 6 Xposition Yposition Zposition Zrotation Yrotation Xrotation 
	JOINT LHipJoint
	{
		OFFSET 0.000000 0.000000 0.000000
		CHANNELS 3 Zrotation Yrotation Xrotation
		JOINT LeftUpLeg
		{
			OFFSET 1.800000 -1.400000 0.085000
			CHANNELS 3 Zrotation Yrotation Xrotation
			JOINT LeftLeg
			{
				OFFSET 2.215000 -6.000000 0.000000
				CHANNELS 3 Zrotation Yrotation Xrotation
				JOINT LeftFoot
				{
					OFFSET 2.500000 -6.900000 0.000000
					CHANNELS 3 Zrotation Yrotation Xrotation
					JOINT LeftToeBase
					{
						OFFSET 0.200000 -0.500000 1.950000
						CHANNELS 3 Zrotation Yrotation Xrotation
						End Site
						{
							OFFSET 0.000000 0.000000 0.000000
						}
					}
				}
			}
		}
	}
	JOINT RHipJoint
	{
		OFFSET 0.000000 0.000000 0.000000
		CHANNELS 3 Zrotation Yrotation Xrotation
		JOINT RightUpLeg
		{
			OFFSET -1.800000 -1.400000 0.085000
			CHANNELS 3 Zrotation Yrotation Xrotation
			JOINT RightLeg
			{
				OFFSET -2.215000 -6.000000 0.000000
				CHANNELS 3 Zrotation Yrotation Xrotation
				JOINT RightFoot
				{
					OFFSET -2.500000 -6.900000 0.000000
					CHANNELS 3 Zrotation Yrotation Xrotation
					JOINT RightToeBase
					{
						OFFSET -0.200000 -0.500000 1.950000
						CHANNELS 3 Zrotation Yrotation Xrotation
						End Site
						{
							OFFSET 0.000000 0.000000 0.000000
						}
					}
				}
			}
		}
	}
	JOINT LowerBack
	{
		OFFSET 0.000000 0.000000 0.000000
		CHANNELS 3 Zrotation Yrotation Xrotation
		JOINT Spine
		{
			OFFSET -0.087000 1.940000 -0.288900
			CHANNELS 3 Zrotation Yrotation Xrotation
			JOINT Spine1
			{
				OFFSET 0.000000 1.950000 0.060000
				CHANNELS 3 Zrotation Yrotation Xrotation
				JOINT Neck
				{
					OFFSET 0.000000 0.000000 0.000000
					CHANNELS 3 Zrotation Yrotation Xrotation
					JOINT Neck1
					{
						OFFSET 0.000000 1.600000 0.340000
						CHANNELS 3 Zrotation Yrotation Xrotation
						JOINT Head
						{
							OFFSET 0.000000 1.667000 -0.240000
							CHANNELS 3 Zrotation Yrotation Xrotation
							End Site
							{
								OFFSET 0.000000 0.000000 0.000000
							}
						}
					}
				}
				JOINT LeftShoulder
				{
					OFFSET 0.000000 0.000000 0.000000
					CHANNELS 3 Zrotation Yrotation Xrotation
					JOINT LeftArm
					{
						OFFSET 2.700000 1.550000 -0.730000
						CHANNELS 3 Zrotation Yrotation Xrotation
						JOINT LeftForeArm
						{
							OFFSET 5.450000 0.000000 0.000000
							CHANNELS 3 Zrotation Yrotation Xrotation
							JOINT LeftHand
							{
								OFFSET 3.450000 0.000000 0.000000
								CHANNELS 3 Zrotation Yrotation Xrotation
								JOINT LeftHandIndex1
								{
									OFFSET 0.750000 0.000000 0.000000
									CHANNELS 3 Zrotation Yrotation Xrotation
									End Site
									{
										OFFSET 0.000000 0.000000 0.000000
									}
								}
							}
						}
					}
				}
				JOINT RightShoulder
				{
					OFFSET 0.000000 0.000000 0.000000
					CHANNELS 3 Zrotation Yrotation Xrotation
					JOINT RightArm
					{
						OFFSET -2.700000 1.550000 -0.730000
						CHANNELS 3 Zrotation Yrotation Xrotation
						JOINT RightForeArm
						{
							OFFSET -5.450000 0.000000 0.000000
							CHANNELS 3 Zrotation Yrotation Xrotation
							JOINT RightHand
							{
								OFFSET -3.450000 0.000000 0.000000
								CHANNELS 3 Zrotation Yrotation Xrotation
								JOINT RightHandIndex1
								{
									OFFSET -0.750000 0.000000 0.000000
									CHANNELS 3 Zrotation Yrotation Xrotation
									End Site
									{
										OFFSET 0.000000 0.000000 0.000000
									}
								}
							}
						}
					}
				}
			}
		}
	}
}
MOTION
Frames: 14
Frame Time: 0.016667
-0.020490 17.174570 -2.008130 -1.122743 24.237896 8.900980 -14.696618 11.786533 3.612278 3.602585 -4.011579 -27.148500 -12.314838 9.364889 26.712985 -0.597002 5.416489 2.710648 0.898300 0.475350 0.616000 18.730651 -11.932362 3.032231 7.526874 1.628296 -7.459292 -5.354593 -3.948437 37.479799 -0.942796 -5.544991 2.703499 0.301850 0.070090 -0.056670 -5.456304 1.904804 -8.255535 18.212819 2.070598 20.302749 -10.245589 6.551700 17.767890 2.862107 -2.101089 -13.934614 -5.864583 -6.920924 41.297959 10.782300 -11.028660 -26.143720 -8.730503 -30.264569 8.912107 -38.948478 -29.434815 0.818982 -138.055766 -80.118272 120.612370 -3.307795 2.224619 0.762120 -0.172080 -0.114020 0.186980 3.246709 35.034967 8.826731 41.652048 49.859639 4.858312 14.636798 52.108217 4.939004 1.367547 -1.384695 -0.181680 0.470120 -0.109550 -0.375310 
-0.024080 17.023420 -1.973450 0.159898 24.168092 7.933552 -14.732575 11.855955 3.655995 2.997148 -3.914772 -26.435316 -13.168293 10.622779 29.286411 -0.479530 6.029801 2.480568 0.892310 0.476180 0.604400 18.681180 -11.966375 2.901306 5.247487 1.722509 -5.344794 -4.246109 -4.563709 38.694263 -0.998336 -5.864014 2.610959 0.303700 0.065950 -0.069430 -5.348917 1.764805 -8.262802 17.124845 2.522996 20.492990 -10.552307 6.970694 18.880076 3.241374 -2.010818 -14.053368 -6.151725 -6.921013 42.767962 11.233890 -11.453980 -26.482660 -8.620591 -31.311137 9.222550 -38.642928 -31.862668 2.158082 -153.763221 -82.106892 140.271843 -3.198836 2.519265 0.771000 -0.180060 -0.114150 0.177440 2.403840 35.993817 8.706946 37.187580 48.777907 2.767504 7.119472 51.198585 2.131447 1.285794 -1.288791 -0.186160 0.482260 -0.095890 -0.376640 
-0.016730 16.901910 -1.940730 0.356371 25.653577 5.706497 -14.728508 11.876474 3.610586 3.085202 -3.892323 -25.793905 -12.386906 11.522264 33.116297 -0.345301 6.655457 2.256316 0.911950 0.505310 0.624460 18.689821 -11.966034 2.883091 4.433704 1.897760 -3.257473 -3.026512 -5.525089 41.398362 -1.155017 -6.381053 2.449305 0.307190 0.037950 -0.092000 -5.446843 1.741540 -8.304058 18.518430 1.607935 21.885349 -11.886355 6.550116 19.681438 3.742637 -1.869836 -14.200956 -6.536771 -7.025481 44.695938 12.415020 -11.804120 -27.908530 -10.363410 -33.458312 9.552672 -35.231777 -34.209313 3.235069 174.139128 -83.679112 176.437102 -3.142133 2.929095 0.803470 -0.223090 -0.079320 0.181080 3.108080 37.520601 8.422084 31.717066 46.454122 0.020534 3.682104 50.010639 1.073807 1.270779 -1.234685 -0.182390 0.506200 -0.113630 -0.375800 
-0.025720 16.806600 -1.932110 0.389053 26.153983 3.285251 -14.777558 11.947288 3.606034 3.906533 -3.674016 -25.483234 -12.257627 12.934588 37.176098 -0.142853 7.501066 1.953164 0.933490 0.552750 0.612660 18.652194 -11.796079 2.886475 3.945984 3.077972 -2.616942 -1.969526 -6.535141 46.503895 -1.368095 -7.142456 2.217927 0.310110 0.020730 -0.099670 -5.349649 1.439457 -8.362282 19.037130 0.602966 24.491768 -12.275311 6.135906 20.252842 3.944669 -2.601761 -14.226279 -8.514850 -6.645679 45.365162 14.231980 -11.993840 -30.049150 -11.108417 -34.565904 10.194613 -31.008438 -37.759852 7.260545 117.838779 -78.042496 -120.602744 -3.543410 2.470432 0.829760 -0.260170 -0.041310 0.198660 3.493001 39.131029 7.446419 25.094191 43.188085 -3.529209 0.830144 49.728733 0.204616 1.272104 -1.238789 -0.161170 0.519410 -0.130860 -0.356110 
-0.029440 16.738920 -1.928920 0.429684 26.592004 1.290090 -14.807754 11.942975 3.558188 4.876763 -3.471024 -24.778916 -12.471435 14.149091 39.914554 0.011400 8.171079 1.690800 0.936510 0.550110 0.618240 18.646894 -11.574492 2.956468 3.408377 5.168895 -3.874981 -0.233820 -8.404790 53.808803 -1.651364 -8.250333 1.851624 0.285410 -0.021970 -0.072700 -5.304982 1.238330 -8.453560 19.690868 -0.539455 27.289636 -13.326796 5.678484 19.560028 3.955612 -2.563500 -13.943756 -9.184513 -6.626671 46.122257 15.928930 -11.860080 -31.954810 -11.247711 -35.797062 9.326463 -26.346255 -40.106946 6.889568 102.809066 -74.295550 -93.560626 -3.610163 0.402256 0.875020 -0.295690 0.000640 0.177220 3.439467 39.841152 7.271858 20.587463 39.137310 -6.994423 -2.216432 50.736015 -1.235909 1.281234 -1.283184 -0.135970 0.478780 -0.124840 -0.364080 
-0.036190 16.673370 -1.926970 0.545364 27.387988 0.421169 -14.879294 11.875827 3.523365 5.324650 -3.704904 -24.922075 -12.353194 14.973458 42.240041 0.123832 8.702664 1.515758 0.941370 0.558460 0.611860 18.637593 -11.127218 3.110249 2.406680 7.761273 -7.523855 3.053632 -12.077539 61.946636 -1.997295 -9.719737 1.407487 0.295110 -0.010130 -0.075250 -5.158313 0.779125 -8.548795 19.120285 -1.830887 28.758609 -13.167987 4.254150 18.701225 3.487803 -3.106561 -12.838392 -10.318506 -6.295024 44.546584 16.078430 -11.618570 -32.049020 -9.347691 -36.067664 8.257821 -22.651336 -40.871869 5.372276 103.739982 -68.626767 -86.591949 -3.481590 0.809388 0.867730 -0.289090 -0.008810 0.185270 2.297124 39.526377 6.323538 17.699421 36.553249 -8.234248 -7.408310 51.608064 -3.546341 1.313292 -1.280069 -0.139870 0.485080 -0.125740 -0.360790 
-0.064190 16.642710 -1.911670 0.998619 26.719342 0.068806 -14.966517 11.902944 3.467611 5.706296 -3.921516 -24.100640 -13.070221 15.412734 42.233809 0.169015 8.874333 1.462708 0.925520 0.552260 0.574380 18.589223 -10.651747 3.326147 0.670399 9.873639 -12.251918 5.016828 -15.764084 69.501372 -2.327995 -11.192469 0.995566 0.296950 0.025510 -0.068880 -4.870708 0.104350 -8.643551 16.675531 -2.205497 30.044824 -11.727241 3.282940 17.718403 2.587230 -3.526959 -12.026521 -11.158848 -5.481092 43.472241 15.827330 -11.274480 -30.432340 -7.454988 -35.905326 6.402262 -17.503290 -39.847785 0.752514 94.648514 -65.901358 -70.536315 -3.279724 0.911091 0.837090 -0.251460 -0.040190 0.189680 2.063975 39.308796 6.347592 14.726060 34.095566 -9.388547 -13.394142 51.976805 -6.248492 1.338026 -1.268283 -0.140550 0.479220 -0.108960 -0.349370 
-0.092800 16.680820 -1.916660 0.424390 25.333101 -0.920786 -14.975169 11.881190 3.312464 6.610489 -3.971300 -22.453881 -13.875857 15.208992 40.567230 0.163688 8.658978 1.526924 0.939380 0.580030 0.596700 18.616231 -10.331433 3.572096 -0.108503 11.145605 -17.116246 5.183775 -18.202859 75.393930 -2.610323 -12.245078 0.693162 0.294400 -0.003440 -0.056860 -4.810249 -0.205336 -8.678686 16.058178 -3.378329 32.172663 -11.556723 1.978640 16.784286 1.796590 -4.043322 -11.541968 -12.135514 -4.291789 42.520407 15.919280 -10.064780 -30.802520 -5.073164 -35.318229 4.414928 -10.185621 -36.690936 -5.151541 81.971325 -64.006506 -55.074135 -3.147496 1.380728 0.832190 -0.267480 -0.011740 0.179580 1.171432 38.413092 6.941385 12.176630 30.786902 -11.813043 -22.551114 54.079493 -11.076718 1.352143 -1.215188 -0.110760 0.453040 -0.125650 -0.343990 
-0.123040 16.733650 -1.914580 -0.255521 24.430806 -1.713739 -15.015728 11.979575 3.180169 7.371561 -4.085853 -20.993976 -13.866693 14.572688 38.989586 0.093123 8.395766 1.614144 0.863050 0.458240 0.611970 18.590661 -10.026424 3.825787 -0.023361 11.820180 -21.378362 4.965819 -20.003220 79.465424 -2.784393 -12.999237 0.490917 0.216700 -0.023860 -0.044690 -4.655693 -0.685783 -8.730927 15.155538 -4.604773 34.647622 -10.992902 0.693091 15.297615 1.463780 -4.084105 -12.042529 -12.138653 -3.278065 41.717070 14.142590 -8.656130 -29.993970 -3.613806 -34.350061 3.530498 -3.502730 -31.702767 -9.233224 70.893738 -60.826407 -43.110409 -3.205178 1.866534 0.861530 -0.260550 -0.018540 0.120370 0.430982 37.143994 8.135444 9.975538 26.450319 -14.380090 -36.440323 54.504582 -18.118594 1.348438 -1.069413 -0.135000 0.413090 -0.086920 -0.390500 
-0.131680 16.825740 -1.909500 -2.193403 23.637147 -2.817669 -14.992747 12.044325 2.884775 8.302115 -3.643222 -19.468474 -12.473182 13.329127 37.105263 0.001866 7.831115 1.809264 0.865560 0.465350 0.629110 18.649428 -9.844886 4.130789 1.807911 12.978115 -26.111675 1.464123 -18.917749 84.594009 -2.927948 -13.450958 0.382895 0.195720 -0.057080 -0.030750 -4.735710 -0.789920 -8.698312 17.221121 -6.705037 36.352455 -11.589683 -0.849844 14.224174 1.627181 -4.873718 -12.167444 -13.315698 -2.520301 40.087976 13.079930 -7.825700 -30.826090 -2.232304 -32.064065 3.342008 0.085970 -27.649773 -11.165732 63.661105 -54.069060 -33.996403 -3.251743 2.263778 0.864630 -0.279590 0.013760 0.120030 -1.216853 34.796832 8.300811 8.025360 22.637692 -15.518454 -43.815760 52.948507 -21.222791 1.365985 -1.052375 -0.107600 0.387320 -0.108090 -0.386520 
-0.144490 16.932040 -1.884060 -3.404182 23.381459 -3.024190 -14.969977 12.112579 2.557888 8.292824 -3.175206 -17.952102 -10.607773 11.652597 34.235831 -0.118454 6.976040 2.113823 0.866120 0.471000 0.641530 18.698206 -9.681074 4.472215 1.744094 14.063125 -31.217010 0.539519 -19.266184 87.400626 -3.025285 -13.864028 0.281249 0.174570 -0.096950 -0.033120 -4.819867 -0.862912 -8.666457 18.841704 -8.478688 37.028032 -12.549678 -2.085763 13.479385 1.913932 -5.165593 -12.555635 -13.656553 -2.215290 38.768288 12.249610 -7.466090 -30.596630 -1.235071 -29.804743 3.530854 1.365606 -24.304104 -11.768980 58.393700 -46.668046 -26.993932 -3.278843 2.537505 0.845280 -0.296610 0.026370 0.117520 -2.750004 32.215296 8.786169 8.053034 19.020669 -16.058805 -51.013074 49.474458 -23.801826 1.421634 -1.118920 -0.076810 0.343410 -0.138140 -0.381810 
-0.162950 17.024320 -1.836580 -4.130053 23.112181 -2.295993 -14.995026 12.186358 2.282020 7.907733 -2.813294 -17.093176 -8.651943 10.139177 31.602889 -0.253439 6.250584 2.406452 0.886520 0.472620 0.651560 18.716016 -9.387172 4.835058 0.439787 15.073513 -37.182180 0.931114 -20.223119 88.668377 -3.080183 -14.234044 0.184335 0.183900 -0.078670 -0.024270 -4.766218 -1.195978 -8.634304 19.226873 -9.575225 36.967082 -12.116802 -3.168154 12.531264 1.867535 -5.997200 -12.147487 -14.230554 -2.194529 35.140677 11.301840 -7.542090 -29.742500 -0.377395 -26.038234 3.589358 1.080919 -21.611643 -11.010388 54.655045 -42.173707 -22.853605 -3.278041 2.689077 0.814890 -0.279660 0.000610 0.145810 -3.453828 28.750120 8.438854 6.656245 15.207928 -15.838547 -53.370284 48.797759 -24.272656 1.398819 -1.178068 -0.074000 0.332850 -0.161390 -0.374900 
-0.155750 17.146260 -1.750130 -4.815192 22.505347 -2.030129 -14.984151 12.410017 1.988467 7.010239 -2.053615 -14.522386 -6.112947 8.274054 27.405020 -0.310397 5.245875 2.837443 0.794310 0.351560 0.609120 18.725046 -9.299874 5.080973 -1.942494 15.167233 -41.119341 2.990791 -21.079280 86.037258 -2.977688 -14.026356 0.244294 0.072800 -0.077800 -0.050260 -4.793621 -1.448185 -8.550118 20.617090 -11.134637 37.764994 -12.578097 -4.348976 9.750606 2.152575 -7.719541 -12.274201 -17.432883 -1.552326 33.679964 11.981990 -7.903150 -29.812640 -1.784802 -22.423759 4.013500 0.598990 -18.158743 -9.803017 50.782359 -40.442972 -19.593699 -3.224382 2.731110 0.807820 -0.308850 -0.013800 0.140580 -2.523396 26.181650 8.251994 3.693986 9.628973 -15.708546 -53.133011 52.690072 -24.253746 1.384266 -1.061250 -0.074030 0.307570 -0.161870 -0.359180 
-0.168670 17.266990 -1.641340 -5.871842 22.053714 -1.675554 -14.972642 12.542656 1.770907 7.218069 -1.372264 -12.293304 -4.245531 6.985631 23.382195 -0.328297 4.531053 3.155677 0.716060 0.255650 0.569330 18.746588 -9.187635 5.290200 -3.545796 15.147763 -44.415034 5.545561 -21.787694 82.256319 -2.842121 -13.670558 0.341069 -0.013980 -0.076720 -0.068000 -4.829750 -1.619783 -8.496263 22.238265 -12.672398 37.314030 -12.873537 -5.499265 7.825465 2.483625 -8.706150 -12.452878 -19.178088 -0.696318 32.705983 11.247450 -7.500460 -28.705970 -3.405681 -19.452797 4.663822 0.467248 -12.680836 -8.642833 46.393877 -40.454367 -16.808232 -3.174531 2.776664 0.790630 -0.316850 -0.028250 0.143240 -1.476777 23.836802 8.033330 2.529354 5.782462 -15.139991 -55.074549 54.609844 -25.264649 1.401992 -0.989405 -0.074700 0.275620 -0.168440 -0.348120 
